Adsworth-8PTG0XT1db.ufo
<glyph name="A" format="2">
  <advance width="1741"/>
  <outline>
    <contour>
      <point x="1472.0" y="280.0" type="line"/>
      <point x="300.0" y="280.0" type="line"/>
      <point x="368.0" y="445.0" type="line"/>
      <point x="1403.0" y="445.0" type="line"/>
    </contour>
    <contour>
      <point x="966.0" y="1500.0" type="line"/>
      <point x="1711.0" y="0.0" type="line"/>
      <point x="1509.0" y="0.0" type="line"/>
      <point x="880.0" y="1282.0" type="line"/>
      <point x="853.0" y="1283.0" type="line"/>
      <point x="241.0" y="0.0" type="line"/>
      <point x="30.0" y="0.0" type="line"/>
      <point x="774.0" y="1500.0" type="line"/>
    </contour>
  </outline>
</glyph>
<glyph name="I" format="2">
  <advance width="846"/>
  <outline>
    <contour>
      <point x="329" y="0" type="line"/>
      <point x="329" y="1500" type="line"/>
      <point x="519" y="1500" type="line"/>
      <point x="519" y="0" type="line"/>
    </contour>
    <contour>
      <point x="638" y="0" type="line"/>
      <point x="208" y="0" type="line"/>
      <point x="208" y="145" type="line"/>
      <point x="638" y="145" type="line"/>
    </contour>
    <contour>
      <point x="638" y="1355" type="line"/>
      <point x="208" y="1355" type="line"/>
      <point x="208" y="1500" type="line"/>
      <point x="638" y="1500" type="line"/>
    </contour>
  </outline>
</glyph>
<glyph name="K" format="2">
  <advance width="1521"/>
  <outline>
    <contour>
      <point x="288" y="0" type="line"/>
      <point x="288" y="1500" type="line"/>
      <point x="483" y="1500" type="line"/>
      <point x="483" y="623" type="line"/>
      <point x="756" y="930" type="line"/>
      <point x="1282" y="1500" type="line"/>
      <point x="1506" y="1500" type="line"/>
      <point x="804" y="726" type="line"/>
      <point x="749" y="710" type="line"/>
      <point x="483" y="429" type="line"/>
      <point x="483" y="0" type="line"/>
    </contour>
    <contour>
      <point x="691" y="740" type="line"/>
      <point x="817" y="885" type="line"/>
      <point x="1604" y="0" type="line"/>
      <point x="1338" y="0" type="line"/>
    </contour>
  </outline>
</glyph>
<glyph name="N" format="2">
  <advance width="2133"/>
  <outline>
    <contour>
      <point x="288.0" y="0.0" type="line"/>
      <point x="288.0" y="1500.0" type="line"/>
      <point x="453.0" y="1498.0" type="line"/>
      <point x="1665.0" y="265.0" type="line"/>
      <point x="1665.0" y="1500.0" type="line"/>
      <point x="1845.0" y="1500.0" type="line"/>
      <point x="1845.0" y="0.0" type="line"/>
      <point x="1655.0" y="0.0" type="line"/>
      <point x="1640.0" y="17.0" type="line"/>
      <point x="468.0" y="1208.0" type="line"/>
      <point x="468.0" y="0.0" type="line"/>
    </contour>
  </outline>
</glyph>
<glyph name="O" format="2">
  <advance width="2163"/>
  <outline>
    <contour>
      <point x="1064" y="-32" type="line" smooth="yes"/>
      <point x="629" y="-32"/>
      <point x="146" y="371"/>
      <point x="146" y="734" type="qcurve" smooth="yes"/>
      <point x="146" y="752" type="line" smooth="yes"/>
      <point x="146" y="1110"/>
      <point x="642" y="1528"/>
      <point x="1071" y="1528" type="qcurve" smooth="yes"/>
      <point x="1082" y="1528" type="line" smooth="yes"/>
      <point x="1499" y="1528"/>
      <point x="2017" y="1127"/>
      <point x="2017" y="753" type="qcurve" smooth="yes"/>
      <point x="2017" y="738" type="line" smooth="yes"/>
      <point x="2017" y="368"/>
      <point x="1502" y="-32"/>
      <point x="1076" y="-32" type="qcurve" smooth="yes"/>
    </contour>
    <contour>
      <point x="1083" y="114" type="line" smooth="yes"/>
      <point x="1411" y="114"/>
      <point x="1815" y="399"/>
      <point x="1815" y="727" type="qcurve" smooth="yes"/>
      <point x="1815" y="743" type="line" smooth="yes"/>
      <point x="1815" y="1071"/>
      <point x="1413" y="1384"/>
      <point x="1083" y="1384" type="qcurve" smooth="yes"/>
      <point x="1071" y="1384" type="line" smooth="yes"/>
      <point x="736" y="1384"/>
      <point x="347" y="1063"/>
      <point x="347" y="736" type="qcurve" smooth="yes"/>
      <point x="347" y="721" type="line" smooth="yes"/>
      <point x="347" y="398"/>
      <point x="710" y="114"/>
      <point x="1071" y="114" type="qcurve" smooth="yes"/>
    </contour>
  </outline>
</glyph>
<glyph name="R" format="2">
  <advance width="1686"/>
  <outline>
    <contour>
      <point x="288" y="0" type="line"/>
      <point x="288" y="1500" type="line"/>
      <point x="482" y="1500" type="line"/>
      <point x="482" y="0" type="line"/>
    </contour>
    <contour>
      <point x="1005" y="620" type="qcurve" smooth="yes"/>
      <point x="409" y="620" type="line"/>
      <point x="409" y="782" type="line"/>
      <point x="1079" y="782" type="line" smooth="yes"/>
      <point x="1220" y="782"/>
      <point x="1364" y="916"/>
      <point x="1364" y="1079" type="qcurve" smooth="yes"/>
      <point x="1364" y="1096" type="line" smooth="yes"/>
      <point x="1364" y="1235"/>
      <point x="1230" y="1346"/>
      <point x="1082" y="1346" type="qcurve" smooth="yes"/>
      <point x="409" y="1346" type="line"/>
      <point x="409" y="1500" type="line"/>
      <point x="1000" y="1500" type="line" smooth="yes"/>
      <point x="1268" y="1500"/>
      <point x="1565" y="1306"/>
      <point x="1565" y="1092" type="qcurve" smooth="yes"/>
      <point x="1565" y="1075" type="line" smooth="yes"/>
      <point x="1565" y="832"/>
      <point x="1245" y="620"/>
    </contour>
    <contour>
      <point x="1149" y="725" type="line"/>
      <point x="1656" y="0" type="line"/>
      <point x="1417" y="0" type="line"/>
      <point x="931" y="710" type="line"/>
    </contour>
  </outline>
</glyph>
<glyph name="S" format="2">
  <advance width="1659"/>
  <outline>
    <contour>
      <point x="1384.0" y="424.0" type="line" smooth="yes"/>
      <point x="1384" y="561"/>
      <point x="1159.0" y="677.0"/>
      <point x="788.0" y="726.0" type="qcurve" smooth="yes"/>
      <point x="397.0" y="772.0"/>
      <point x="125" y="961.0"/>
      <point x="125.0" y="1128.0" type="qcurve" smooth="yes"/>
      <point x="125.0" y="1153.0" type="line" smooth="yes"/>
      <point x="125" y="1301"/>
      <point x="448" y="1530"/>
      <point x="806.0" y="1530.0" type="qcurve" smooth="yes"/>
      <point x="818.0" y="1530.0" type="line" smooth="yes"/>
      <point x="1201" y="1530"/>
      <point x="1505" y="1314"/>
      <point x="1510.0" y="1119.0" type="qcurve" smooth="yes"/>
      <point x="1510.0" y="1076.0" type="line"/>
      <point x="1316.0" y="1076.0" type="line"/>
      <point x="1316.0" y="1132.0" type="line" smooth="yes"/>
      <point x="1316" y="1243"/>
      <point x="1128" y="1376"/>
      <point x="822.0" y="1376.0" type="qcurve" smooth="yes"/>
      <point x="810.0" y="1376.0" type="line" smooth="yes"/>
      <point x="537" y="1376"/>
      <point x="327" y="1235"/>
      <point x="327.0" y="1153.0" type="qcurve" smooth="yes"/>
      <point x="327.0" y="1129.0" type="line" smooth="yes"/>
      <point x="327" y="1059"/>
      <point x="510.0" y="930.0"/>
      <point x="891.0" y="884.0" type="qcurve" smooth="yes"/>
      <point x="1299" y="835"/>
      <point x="1572" y="621"/>
      <point x="1572.0" y="428.0" type="qcurve" smooth="yes"/>
      <point x="1572.0" y="404.0" type="line" smooth="yes"/>
      <point x="1572" y="218"/>
      <point x="1216" y="-33"/>
      <point x="837.0" y="-33.0" type="qcurve" smooth="yes"/>
      <point x="832.0" y="-33.0" type="line" smooth="yes"/>
      <point x="425" y="-33"/>
      <point x="85.0" y="221.0"/>
      <point x="87.0" y="396.0" type="qcurve" smooth="yes"/>
      <point x="87.0" y="476.0" type="line"/>
      <point x="281.0" y="476.0" type="line"/>
      <point x="281.0" y="401.0" type="line" smooth="yes"/>
      <point x="281" y="279"/>
      <point x="489" y="117"/>
      <point x="829.0" y="117.0" type="qcurve" smooth="yes"/>
      <point x="837.0" y="117.0" type="line" smooth="yes"/>
      <point x="1137" y="117"/>
      <point x="1384" y="290"/>
      <point x="1384.0" y="409.0" type="qcurve" smooth="yes"/>
    </contour>
  </outline>
</glyph>
<glyph name="U" format="2">
  <advance width="1943"/>
  <outline>
    <contour>
      <point x="210" y="1500" type="line"/>
      <point x="403" y="1500" type="line"/>
      <point x="403" y="578" type="line" smooth="yes"/>
      <point x="403" y="339"/>
      <point x="735" y="129"/>
      <point x="966" y="129" type="qcurve" smooth="yes"/>
      <point x="975" y="129" type="line" smooth="yes"/>
      <point x="1265" y="129"/>
      <point x="1543" y="368"/>
      <point x="1543" y="578" type="qcurve" smooth="yes"/>
      <point x="1543" y="1500" type="line"/>
      <point x="1733" y="1500" type="line"/>
      <point x="1733" y="603" type="line" smooth="yes"/>
      <point x="1733" y="269"/>
      <point x="1317" y="-33"/>
      <point x="976" y="-33" type="qcurve" smooth="yes"/>
      <point x="967" y="-33" type="line" smooth="yes"/>
      <point x="643" y="-33"/>
      <point x="210" y="273"/>
      <point x="210" y="633" type="qcurve" smooth="yes"/>
    </contour>
  </outline>
</glyph>
<glyph name="W" format="2">
  <advance width="2330"/>
  <outline>
    <contour>
      <point x="516.0" y="0.0" type="line"/>
      <point x="-19.0" y="1500.0" type="line"/>
      <point x="163.0" y="1500.0" type="line"/>
      <point x="647.0" y="339.0" type="line"/>
      <point x="1082.0" y="1500.0" type="line"/>
      <point x="1278.0" y="1500.0" type="line"/>
      <point x="1745.0" y="339.0" type="line"/>
      <point x="2191.0" y="1500.0" type="line"/>
      <point x="2350.0" y="1500.0" type="line"/>
      <point x="1824.0" y="0.0" type="line"/>
      <point x="1661.0" y="0.0" type="line"/>
      <point x="1175.0" y="1245.0" type="line"/>
      <point x="1163.0" y="1245.0" type="line"/>
      <point x="675.0" y="0.0" type="line"/>
    </contour>
  </outline>
</glyph>
<glyph name="X" format="2">
  <advance width="1588"/>
  <outline>
    <contour>
      <point x="24" y="0" type="line"/>
      <point x="725" y="845" type="line"/>
      <point x="770" y="851" type="line"/>
      <point x="1288" y="1500" type="line"/>
      <point x="1524" y="1500" type="line"/>
      <point x="858" y="707" type="line"/>
      <point x="816" y="692" type="line"/>
      <point x="260" y="0" type="line"/>
    </contour>
    <contour>
      <point x="1304" y="0" type="line"/>
      <point x="745" y="674" type="line"/>
      <point x="708" y="721" type="line"/>
      <point x="65" y="1500" type="line"/>
      <point x="312" y="1500" type="line"/>
      <point x="850" y="859" type="line"/>
      <point x="874" y="829" type="line"/>
      <point x="1564" y="0" type="line"/>
    </contour>
  </outline>
</glyph>
<glyph name="asciitilde" format="2">
  <advance width="2420"/>
  <outline>
    <contour>
      <point x="1252.0" y="902.0" type="qcurve" smooth="yes"/>
      <point x="1163.0" y="943.0"/>
      <point x="1008.0" y="1015.0"/>
      <point x="872.0" y="1015.0" type="qcurve" smooth="yes"/>
      <point x="711.0" y="1015.0"/>
      <point x="475.0" y="870.0"/>
      <point x="430.0" y="800.0" type="qcurve"/>
      <point x="563.0" y="736.0" type="line"/>
      <point x="593.0" y="770.0"/>
      <point x="777.0" y="858.0"/>
      <point x="882.0" y="858.0" type="qcurve"/>
      <point x="986.0" y="858.0"/>
      <point x="1106.0" y="820.0"/>
      <point x="1176.0" y="782.0" type="qcurve" smooth="yes"/>
      <point x="1253.0" y="746.0"/>
      <point x="1444.0" y="666.0"/>
      <point x="1586.0" y="666.0" type="qcurve" smooth="yes"/>
      <point x="1755.0" y="666.0"/>
      <point x="1988.0" y="821.0"/>
      <point x="2021.0" y="880.0" type="qcurve"/>
      <point x="1886.0" y="946.0" type="line"/>
      <point x="1855.0" y="909.0"/>
      <point x="1680.0" y="816.0"/>
      <point x="1567.0" y="816.0" type="qcurve" smooth="yes"/>
      <point x="1464.0" y="816.0"/>
      <point x="1332.0" y="861.0"/>
    </contour>
  </outline>
</glyph>
<glyph name="asterisk" format="2">
  <advance width="1355"/>
  <outline>
    <contour>
      <point x="729.0" y="997.0" type="line"/>
      <point x="413.0" y="549.0" type="line"/>
      <point x="269.0" y="658.0" type="line"/>
      <point x="637.0" y="1066.0" type="line"/>
      <point x="130.0" y="1175.0" type="line"/>
      <point x="195.0" y="1352.0" type="line"/>
      <point x="671.0" y="1186.0" type="line"/>
      <point x="635.0" y="1662.0" type="line"/>
      <point x="823.0" y="1662.0" type="line"/>
      <point x="786.0" y="1186.0" type="line"/>
      <point x="1230.0" y="1351.0" type="line"/>
      <point x="1290.0" y="1173.0" type="line"/>
      <point x="818.0" y="1069.0" type="line"/>
      <point x="1195.0" y="666.0" type="line"/>
      <point x="1044.0" y="558.0" type="line"/>
    </contour>
  </outline>
</glyph>
<glyph name="b" format="2">
  <advance width="1853"/>
  <outline>
    <contour>
      <point x="245.0" y="2.0" type="line"/>
      <point x="245.0" y="1540.0" type="line"/>
      <point x="425.0" y="1540.0" type="line"/>
      <point x="415.0" y="2.0" type="line"/>
    </contour>
    <contour>
      <point x="352.0" y="590.0" type="line" smooth="yes"/>
      <point x="352.0" y="797.0"/>
      <point x="716.0" y="1082.0"/>
      <point x="1018.0" y="1082.0" type="qcurve" smooth="yes"/>
      <point x="1034.0" y="1082.0" type="line" smooth="yes"/>
      <point x="1369.0" y="1082.0"/>
      <point x="1735.0" y="751.0"/>
      <point x="1735.0" y="530.0" type="qcurve" smooth="yes"/>
      <point x="1735.0" y="524.0" type="line" smooth="yes"/>
      <point x="1735.0" y="293.0"/>
      <point x="1370.0" y="-23.0"/>
      <point x="1040.0" y="-23.0" type="qcurve" smooth="yes"/>
      <point x="1031.0" y="-23.0" type="line" smooth="yes"/>
      <point x="717.0" y="-23.0"/>
      <point x="352.0" y="288.0"/>
      <point x="352.0" y="449.0" type="qcurve" smooth="yes"/>
    </contour>
    <contour>
      <point x="456.0" y="544.0" type="qcurve" smooth="yes"/>
      <point x="456.0" y="521.0" type="line" smooth="yes"/>
      <point x="456.0" y="301.0"/>
      <point x="789.0" y="82.0"/>
      <point x="1010.0" y="82.0" type="qcurve" smooth="yes"/>
      <point x="1027.0" y="82.0" type="line" smooth="yes"/>
      <point x="1257.0" y="82.0"/>
      <point x="1565.0" y="313.0"/>
      <point x="1565.0" y="531.0" type="qcurve" smooth="yes"/>
      <point x="1565.0" y="543.0" type="line" smooth="yes"/>
      <point x="1565.0" y="763.0"/>
      <point x="1241.0" y="978.0"/>
      <point x="1009.0" y="978.0" type="qcurve" smooth="yes"/>
      <point x="994.0" y="978.0" type="line" smooth="yes"/>
      <point x="782.0" y="978.0"/>
      <point x="456.0" y="730.0"/>
    </contour>
  </outline>
</glyph>
<glyph name="backslash" format="2">
  <advance width="1144"/>
  <outline>
    <contour>
      <point x="1164" y="0" type="line"/>
      <point x="968" y="2" type="line"/>
      <point x="-20" y="1500" type="line"/>
      <point x="175" y="1500" type="line"/>
    </contour>
  </outline>
</glyph>
<glyph name="braceleft" format="2">
  <advance width="1040"/>
  <outline>
    <contour>
      <point x="174.0" y="531.0" type="line"/>
      <point x="369.0" y="530.0"/>
      <point x="556.0" y="513.0"/>
      <point x="556.0" y="454.0" type="qcurve" smooth="yes"/>
      <point x="556.0" y="423.0"/>
      <point x="463.0" y="310.0"/>
      <point x="425.0" y="277.0" type="qcurve" smooth="yes"/>
      <point x="379" y="237"/>
      <point x="257.0" y="105.0"/>
      <point x="257.0" y="-16.0" type="qcurve" smooth="yes"/>
      <point x="257.0" y="-151.0"/>
      <point x="634.0" y="-366.0"/>
      <point x="983.0" y="-344.0" type="qcurve"/>
      <point x="984.0" y="-175.0" type="line"/>
      <point x="726.0" y="-199.0"/>
      <point x="461.0" y="-87.0"/>
      <point x="461.0" y="-11.0" type="qcurve" smooth="yes"/>
      <point x="461" y="91"/>
      <point x="555" y="201"/>
      <point x="596.0" y="240.0" type="qcurve" smooth="yes"/>
      <point x="634.0" y="276.0"/>
      <point x="754.0" y="374.0"/>
      <point x="754.0" y="434" type="qcurve" smooth="yes"/>
      <point x="754.0" y="484.0"/>
      <point x="611.0" y="586.0"/>
      <point x="568.0" y="599.0" type="qcurve"/>
      <point x="605.0" y="622.0"/>
      <point x="754.0" y="706.0"/>
      <point x="754.0" y="765" type="qcurve" smooth="yes"/>
      <point x="754.0" y="816.0"/>
      <point x="639.0" y="938.0"/>
      <point x="603.0" y="979.0" type="qcurve" smooth="yes"/>
      <point x="570" y="1017"/>
      <point x="462" y="1129"/>
      <point x="462.0" y="1226.0" type="qcurve" smooth="yes"/>
      <point x="462.0" y="1286.0"/>
      <point x="716.0" y="1388.0"/>
      <point x="991.0" y="1377.0" type="qcurve"/>
      <point x="989.0" y="1552.0" type="line"/>
      <point x="644.0" y="1551.0"/>
      <point x="256.0" y="1347.0"/>
      <point x="256.0" y="1225.0" type="qcurve" smooth="yes"/>
      <point x="256.0" y="1127.0"/>
      <point x="390" y="988"/>
      <point x="429.0" y="949.0" type="qcurve" smooth="yes"/>
      <point x="468" y="910"/>
      <point x="556.0" y="807.0"/>
      <point x="556.0" y="763.0" type="qcurve" smooth="yes"/>
      <point x="556.0" y="700.0"/>
      <point x="346.0" y="691.0"/>
      <point x="174.0" y="691.0" type="qcurve"/>
    </contour>
  </outline>
</glyph>
<glyph name="braceright" format="2">
  <advance width="1040"/>
  <outline>
    <contour>
      <point x="912.0" y="531.0" type="qcurve"/>
      <point x="912.0" y="691.0" type="line"/>
      <point x="740.0" y="691.0"/>
      <point x="530.0" y="700.0"/>
      <point x="530.0" y="763.0" type="qcurve" smooth="yes"/>
      <point x="530.0" y="807.0"/>
      <point x="618.0" y="910.0"/>
      <point x="657.0" y="949.0" type="qcurve" smooth="yes"/>
      <point x="696.0" y="988.0"/>
      <point x="830.0" y="1127.0"/>
      <point x="830.0" y="1225.0" type="qcurve" smooth="yes"/>
      <point x="830.0" y="1347.0"/>
      <point x="442.0" y="1551.0"/>
      <point x="97.0" y="1552.0" type="qcurve"/>
      <point x="95.0" y="1377.0" type="line"/>
      <point x="370.0" y="1388.0"/>
      <point x="624.0" y="1286.0"/>
      <point x="624.0" y="1226.0" type="qcurve" smooth="yes"/>
      <point x="624.0" y="1129.0"/>
      <point x="516.0" y="1017.0"/>
      <point x="483.0" y="979.0" type="qcurve" smooth="yes"/>
      <point x="447.0" y="938.0"/>
      <point x="332.0" y="816.0"/>
      <point x="332.0" y="765.0" type="qcurve" smooth="yes"/>
      <point x="332.0" y="706.0"/>
      <point x="481.0" y="622.0"/>
      <point x="518.0" y="599.0" type="qcurve"/>
      <point x="475.0" y="586.0"/>
      <point x="332.0" y="484.0"/>
      <point x="332.0" y="434.0" type="qcurve" smooth="yes"/>
      <point x="332.0" y="374.0"/>
      <point x="452.0" y="276.0"/>
      <point x="490.0" y="240.0" type="qcurve" smooth="yes"/>
      <point x="531.0" y="201.0"/>
      <point x="625.0" y="91.0"/>
      <point x="625.0" y="-11.0" type="qcurve" smooth="yes"/>
      <point x="625.0" y="-87.0"/>
      <point x="360.0" y="-199.0"/>
      <point x="102.0" y="-175.0" type="qcurve"/>
      <point x="103.0" y="-344.0" type="line"/>
      <point x="452.0" y="-366.0"/>
      <point x="829.0" y="-151.0"/>
      <point x="829.0" y="-16.0" type="qcurve" smooth="yes"/>
      <point x="829.0" y="105.0"/>
      <point x="707.0" y="237.0"/>
      <point x="661.0" y="277.0" type="qcurve" smooth="yes"/>
      <point x="623.0" y="310.0"/>
      <point x="530.0" y="423.0"/>
      <point x="530.0" y="454.0" type="qcurve" smooth="yes"/>
      <point x="530.0" y="513.0"/>
      <point x="717.0" y="530.0"/>
    </contour>
  </outline>
</glyph>
<glyph name="comma" format="2">
  <advance width="1007"/>
  <outline>
    <contour>
      <point x="187.0" y="-137.0" type="line"/>
      <point x="380.0" y="244.0" type="line" smooth="yes"/>
      <point x="411" y="305"/>
      <point x="488" y="412"/>
      <point x="557.0" y="412.0" type="qcurve" smooth="yes"/>
      <point x="581.0" y="412.0" type="line" smooth="yes"/>
      <point x="636.0" y="412.0"/>
      <point x="723" y="308"/>
      <point x="700.0" y="243.0" type="qcurve" smooth="yes"/>
      <point x="695.0" y="229.0" type="line" smooth="yes"/>
      <point x="675" y="172"/>
      <point x="377.0" y="-127.0"/>
      <point x="301.0" y="-197.0" type="qcurve"/>
    </contour>
  </outline>
</glyph>
<glyph name="equal" format="2">
  <advance width="1920"/>
  <outline>
    <contour>
      <point x="1639.0" y="443.0" type="line"/>
      <point x="280.0" y="443.0" type="line"/>
      <point x="280.0" y="603.0" type="line"/>
      <point x="1640.0" y="603.0" type="line"/>
    </contour>
    <contour>
      <point x="1640.0" y="835.0" type="line"/>
      <point x="280.0" y="835.0" type="line"/>
      <point x="280.0" y="995.0" type="line"/>
      <point x="1640.0" y="995.0" type="line"/>
    </contour>
  </outline>
</glyph>
<glyph name="exclam" format="2">
  <advance width="898"/>
  <outline>
    <contour>
      <point x="352.0" y="534.0" type="line"/>
      <point x="342.0" y="1500.0" type="line"/>
      <point x="542.0" y="1500.0" type="line"/>
      <point x="532.0" y="534.0" type="line"/>
    </contour>
    <contour>
      <point x="448" y="-10.0" type="line" smooth="yes"/>
      <point x="508" y="-10.0"/>
      <point x="599" y="75.0"/>
      <point x="599" y="146.0" type="qcurve" smooth="yes"/>
      <point x="599" y="176.0" type="line" smooth="yes"/>
      <point x="599" y="250.0"/>
      <point x="512.0" y="333.0"/>
      <point x="448" y="333.0" type="qcurve" smooth="yes"/>
      <point x="445" y="333.0" type="line" smooth="yes"/>
      <point x="386.0" y="333.0"/>
      <point x="299" y="250.0"/>
      <point x="299" y="176.0" type="qcurve" smooth="yes"/>
      <point x="299" y="146.0" type="line" smooth="yes"/>
      <point x="299" y="70.0"/>
      <point x="383" y="-10.0"/>
      <point x="445" y="-10.0" type="qcurve" smooth="yes"/>
    </contour>
  </outline>
</glyph>
<glyph name="five" format="2">
  <advance width="1412"/>
  <outline>
    <contour>
      <point x="785.0" y="1019.0" type="line" smooth="yes"/>
      <point x="1091.0" y="1019.0"/>
      <point x="1366.0" y="756.0"/>
      <point x="1366.0" y="510.0" type="qcurve" smooth="yes"/>
      <point x="1366.0" y="500.0" type="line" smooth="yes"/>
      <point x="1366.0" y="269.0"/>
      <point x="1007.0" y="-25.0"/>
      <point x="701.0" y="-25.0" type="qcurve" smooth="yes"/>
      <point x="672.0" y="-25.0" type="line" smooth="yes"/>
      <point x="383.0" y="-25.0"/>
      <point x="43.0" y="195.0"/>
      <point x="29.0" y="352.0" type="qcurve" smooth="yes"/>
      <point x="24.0" y="468.0" type="line"/>
      <point x="208.0" y="470.0" type="line"/>
      <point x="208.0" y="348.0" type="line" smooth="yes"/>
      <point x="206.0" y="240.0"/>
      <point x="486.0" y="78.0"/>
      <point x="693.0" y="78.0" type="qcurve" smooth="yes"/>
      <point x="702.0" y="78.0" type="line" smooth="yes"/>
      <point x="914.0" y="78.0"/>
      <point x="1204.0" y="256.0"/>
      <point x="1204.0" y="476.0" type="qcurve" smooth="yes"/>
      <point x="1204.0" y="510.0" type="line" smooth="yes"/>
      <point x="1204.0" y="740.0"/>
      <point x="934.0" y="912.0"/>
      <point x="740.0" y="912.0" type="qcurve" smooth="yes"/>
      <point x="686.0" y="912.0" type="line" smooth="yes"/>
      <point x="524.0" y="912.0"/>
      <point x="301.0" y="770.0"/>
      <point x="251.0" y="681.0" type="qcurve"/>
      <point x="63.0" y="682.0" type="line"/>
      <point x="105.0" y="1500.0" type="line"/>
      <point x="1249.0" y="1500.0" type="line"/>
      <point x="1249.0" y="1372.0" type="line"/>
      <point x="237.0" y="1372.0" type="line"/>
      <point x="198.0" y="816.0" type="line"/>
      <point x="229.0" y="870.0"/>
      <point x="546.0" y="1019.0"/>
      <point x="721.0" y="1019.0" type="qcurve" smooth="yes"/>
    </contour>
  </outline>
</glyph>
<glyph name="four" format="2">
  <advance width="1517"/>
  <outline>
    <contour>
      <point x="942.0" y="0.0" type="line"/>
      <point x="960.0" y="1510.0" type="line"/>
      <point x="1126.0" y="1507.0" type="line"/>
      <point x="1126.0" y="2.0" type="line"/>
    </contour>
    <contour>
      <point x="1453.0" y="535.0" type="line"/>
      <point x="1453.0" y="398.0" type="line"/>
      <point x="64.0" y="398.0" type="line"/>
      <point x="48.0" y="570.0" type="line"/>
      <point x="867.0" y="1511.0" type="line"/>
      <point x="997.0" y="1417.0" type="line"/>
      <point x="217.0" y="537.0" type="line"/>
    </contour>
  </outline>
</glyph>
<glyph name="grave" format="2">
  <advance width="1200"/>
  <outline>
    <contour>
      <point x="579.0" y="1503.0" type="line"/>
      <point x="986.0" y="1127.0" type="line"/>
      <point x="730.0" y="1127.0" type="line"/>
      <point x="218.0" y="1503.0" type="line"/>
    </contour>
  </outline>
</glyph>
<glyph name="hyphen" format="2">
  <advance width="1572"/>
  <outline>
    <contour>
      <point x="1306.0" y="686.0" type="line"/>
      <point x="266.0" y="686.0" type="line"/>
      <point x="266.0" y="875.0" type="line"/>
      <point x="1306.0" y="875.0" type="line"/>
    </contour>
  </outline>
</glyph>
<glyph name="i" format="2">
  <advance width="783"/>
  <outline>
    <contour>
      <point x="387" y="0" type="line"/>
      <point x="387" y="1040" type="line"/>
      <point x="569" y="1040" type="line"/>
      <point x="569" y="0" type="line"/>
    </contour>
    <contour>
      <point x="469" y="1276" type="line" smooth="yes"/>
      <point x="542" y="1276"/>
      <point x="609" y="1349"/>
      <point x="609" y="1403" type="qcurve" smooth="yes"/>
      <point x="609" y="1412" type="line" smooth="yes"/>
      <point x="609" y="1466"/>
      <point x="543" y="1540"/>
      <point x="469" y="1540" type="qcurve" smooth="yes"/>
      <point x="466" y="1540" type="line" smooth="yes"/>
      <point x="398" y="1540"/>
      <point x="333" y="1466"/>
      <point x="333" y="1412" type="qcurve" smooth="yes"/>
      <point x="333" y="1403" type="line" smooth="yes"/>
      <point x="333" y="1348"/>
      <point x="396" y="1276"/>
      <point x="466" y="1276" type="qcurve" smooth="yes"/>
    </contour>
    <contour>
      <point x="530" y="880" type="line"/>
      <point x="17" y="860" type="line"/>
      <point x="17" y="1020" type="line"/>
      <point x="530" y="1040" type="line"/>
    </contour>
  </outline>
</glyph>
<glyph name="j" format="2">
  <advance width="758"/>
  <outline>
    <contour>
      <point x="551" y="33" type="line" smooth="yes"/>
      <point x="551" y="-230"/>
      <point x="221" y="-498"/>
      <point x="-6" y="-498" type="qcurve" smooth="yes"/>
      <point x="-158" y="-498"/>
      <point x="-243" y="-488"/>
      <point x="-272" y="-479" type="qcurve"/>
      <point x="-282" y="-330" type="line"/>
      <point x="-252" y="-336"/>
      <point x="-128" y="-354"/>
      <point x="-42" y="-354" type="qcurve" smooth="yes"/>
      <point x="131" y="-354"/>
      <point x="371" y="-182"/>
      <point x="371" y="71" type="qcurve" smooth="yes"/>
      <point x="371" y="1042" type="line"/>
      <point x="551" y="1042" type="line"/>
    </contour>
    <contour>
      <point x="444" y="1276" type="line" smooth="yes"/>
      <point x="516" y="1276"/>
      <point x="584" y="1349"/>
      <point x="584" y="1403" type="qcurve" smooth="yes"/>
      <point x="584" y="1412" type="line" smooth="yes"/>
      <point x="584" y="1466"/>
      <point x="518" y="1540"/>
      <point x="444" y="1540" type="qcurve"/>
      <point x="441" y="1540" type="line" smooth="yes"/>
      <point x="372" y="1540"/>
      <point x="307" y="1466"/>
      <point x="307" y="1412" type="qcurve" smooth="yes"/>
      <point x="307" y="1403" type="line" smooth="yes"/>
      <point x="307" y="1348"/>
      <point x="371" y="1276"/>
      <point x="441" y="1276" type="qcurve" smooth="yes"/>
    </contour>
    <contour>
      <point x="390" y="890" type="line"/>
      <point x="67" y="870" type="line"/>
      <point x="67" y="1022" type="line"/>
      <point x="390" y="1042" type="line"/>
    </contour>
  </outline>
</glyph>
<glyph name="k" format="2">
  <advance width="1591"/>
  <outline>
    <contour>
      <point x="245" y="0" type="line"/>
      <point x="245" y="1540" type="line"/>
      <point x="425" y="1540" type="line"/>
      <point x="425" y="0" type="line"/>
    </contour>
    <contour>
      <point x="407" y="233" type="line"/>
      <point x="407" y="384" type="line"/>
      <point x="775" y="667" type="line"/>
      <point x="1298" y="1040" type="line"/>
      <point x="1561" y="1040" type="line"/>
      <point x="1003" y="650" type="line"/>
      <point x="948" y="611" type="line"/>
    </contour>
    <contour>
      <point x="1000" y="735" type="line"/>
      <point x="1622" y="0" type="line"/>
      <point x="1403" y="0" type="line"/>
      <point x="857" y="649" type="line"/>
    </contour>
  </outline>
</glyph>
<glyph name="l" format="2">
  <advance width="793"/>
  <outline>
    <contour>
      <point x="253" y="106" type="qcurve" smooth="yes"/>
      <point x="252" y="1540" type="line"/>
      <point x="433" y="1540" type="line"/>
      <point x="423" y="1" type="line"/>
      <point x="316" y="-3"/>
      <point x="253" y="66"/>
    </contour>
    <contour>
      <point x="752" y="85" type="line"/>
      <point x="425" y="1" type="line"/>
      <point x="284" y="145" type="line"/>
      <point x="749" y="225" type="line"/>
    </contour>
  </outline>
</glyph>
<glyph name="m" format="2">
  <advance width="2500"/>
  <outline>
    <contour>
      <point x="245.0" y="0.0" type="line"/>
      <point x="245.0" y="1040.0" type="line"/>
      <point x="415.0" y="1040.0" type="line"/>
      <point x="425.0" y="0.0" type="line"/>
    </contour>
    <contour>
      <point x="284.0" y="646.0" type="line"/>
      <point x="341.0" y="797.0"/>
      <point x="724.0" y="1080.0"/>
      <point x="963.0" y="1080.0" type="qcurve" smooth="yes"/>
      <point x="1141.0" y="1080.0"/>
      <point x="1364.0" y="861.0"/>
      <point x="1366.0" y="654.0" type="qcurve" smooth="yes"/>
      <point x="1366.0" y="0.0" type="line"/>
      <point x="1185.0" y="0.0" type="line"/>
      <point x="1185.0" y="673.0" type="line" smooth="yes"/>
      <point x="1185.0" y="836.0"/>
      <point x="982.0" y="968.0"/>
      <point x="879.0" y="968.0" type="qcurve" smooth="yes"/>
      <point x="731.0" y="968.0"/>
      <point x="394.0" y="738.0"/>
      <point x="306.0" y="582.0" type="qcurve"/>
    </contour>
    <contour>
      <point x="1185.0" y="650.0" type="line"/>
      <point x="1244.0" y="809.0"/>
      <point x="1619.0" y="1080.0"/>
      <point x="1865.0" y="1080.0" type="qcurve" smooth="yes"/>
      <point x="2032.0" y="1080.0"/>
      <point x="2293.0" y="852.0"/>
      <point x="2295.0" y="645.0" type="qcurve" smooth="yes"/>
      <point x="2295.0" y="0.0" type="line"/>
      <point x="2114.0" y="0.0" type="line"/>
      <point x="2114.0" y="670.0" type="line" smooth="yes"/>
      <point x="2114.0" y="834.0"/>
      <point x="1876.0" y="967.0"/>
      <point x="1783.0" y="967.0" type="qcurve" smooth="yes"/>
      <point x="1635.0" y="967.0"/>
      <point x="1305.0" y="755.0"/>
      <point x="1212.0" y="594.0" type="qcurve"/>
    </contour>
  </outline>
</glyph>
<glyph name="numbersign" format="2">
  <advance width="1774"/>
  <outline>
    <contour>
      <point x="354.0" y="0.0" type="line"/>
      <point x="614.0" y="1500.0" type="line"/>
      <point x="755.0" y="1500.0" type="line"/>
      <point x="495.0" y="0.0" type="line"/>
    </contour>
    <contour>
      <point x="1612.0" y="420.0" type="line"/>
      <point x="82.0" y="420.0" type="line"/>
      <point x="82.0" y="550.0" type="line"/>
      <point x="1612.0" y="550.0" type="line"/>
    </contour>
    <contour>
      <point x="1662.0" y="925.0" type="line"/>
      <point x="132.0" y="925.0" type="line"/>
      <point x="142.0" y="1055.0" type="line"/>
      <point x="1672.0" y="1055.0" type="line"/>
    </contour>
    <contour>
      <point x="1064.0" y="0.0" type="line"/>
      <point x="1324.0" y="1500.0" type="line"/>
      <point x="1465.0" y="1500.0" type="line"/>
      <point x="1205.0" y="0.0" type="line"/>
    </contour>
  </outline>
</glyph>
<glyph name="o" format="2">
  <advance width="1766"/>
  <outline>
    <contour>
      <point x="875.0" y="-24.0" type="line" smooth="yes"/>
      <point x="511.0" y="-24.0"/>
      <point x="118.0" y="272.0"/>
      <point x="118.0" y="512.0" type="qcurve" smooth="yes"/>
      <point x="118.0" y="529.0" type="line" smooth="yes"/>
      <point x="118.0" y="778.0"/>
      <point x="511.0" y="1081.0"/>
      <point x="871.0" y="1081.0" type="qcurve" smooth="yes"/>
      <point x="879.0" y="1081.0" type="line" smooth="yes"/>
      <point x="1257.0" y="1081.0"/>
      <point x="1648.0" y="782.0"/>
      <point x="1648.0" y="527.0" type="qcurve" smooth="yes"/>
      <point x="1648.0" y="516.0" type="line" smooth="yes"/>
      <point x="1648.0" y="272.0"/>
      <point x="1252.0" y="-24.0"/>
      <point x="883.0" y="-24.0" type="qcurve" smooth="yes"/>
    </contour>
    <contour>
      <point x="877.0" y="94.0" type="line" smooth="yes"/>
      <point x="1134.0" y="94.0"/>
      <point x="1466.0" y="313.0"/>
      <point x="1466.0" y="517.0" type="qcurve" smooth="yes"/>
      <point x="1466.0" y="532.0" type="line" smooth="yes"/>
      <point x="1466.0" y="740.0"/>
      <point x="1145.0" y="968.0"/>
      <point x="877.0" y="968.0" type="qcurve" smooth="yes"/>
      <point x="868.0" y="968.0" type="line" smooth="yes"/>
      <point x="602.0" y="968.0"/>
      <point x="300.0" y="749.0"/>
      <point x="300.0" y="533.0" type="qcurve" smooth="yes"/>
      <point x="300.0" y="519.0" type="line" smooth="yes"/>
      <point x="300.0" y="313.0"/>
      <point x="602.0" y="94.0"/>
      <point x="868.0" y="94.0" type="qcurve" smooth="yes"/>
    </contour>
  </outline>
</glyph>
<glyph name="one" format="2">
  <advance width="726"/>
  <outline>
    <contour>
      <point x="273.0" y="0.0" type="line"/>
      <point x="273.0" y="1500.0" type="line"/>
      <point x="453.0" y="1500.0" type="line"/>
      <point x="453.0" y="0.0" type="line"/>
    </contour>
  </outline>
</glyph>
<glyph name="parenleft" format="2">
  <advance width="1040"/>
  <outline>
    <contour>
      <point x="837.0" y="-357.0" type="line"/>
      <point x="113.0" y="41.0"/>
      <point x="114.0" y="1150.0"/>
      <point x="821.0" y="1551.0" type="qcurve"/>
      <point x="901.0" y="1389.0" type="line"/>
      <point x="241.0" y="1000.0"/>
      <point x="291.0" y="170.0"/>
      <point x="924.0" y="-199.0" type="qcurve"/>
    </contour>
  </outline>
</glyph>
<glyph name="parenright" format="2">
  <advance width="1040"/>
  <outline>
    <contour>
      <point x="203.0" y="-357.0" type="qcurve"/>
      <point x="116.0" y="-199.0" type="line"/>
      <point x="749.0" y="170.0"/>
      <point x="799.0" y="1000.0"/>
      <point x="139.0" y="1389.0" type="qcurve"/>
      <point x="219.0" y="1551.0" type="line"/>
      <point x="926.0" y="1150.0"/>
      <point x="927.0" y="41.0"/>
    </contour>
  </outline>
</glyph>
<glyph name="q" format="2">
  <advance width="1838"/>
  <outline>
    <contour>
      <point x="1649.0" y="-480.0" type="line"/>
      <point x="1469.0" y="-480.0" type="line"/>
      <point x="1491.0" y="1060.0" type="line"/>
      <point x="1649.0" y="1060.0" type="line"/>
    </contour>
    <contour>
      <point x="1560" y="561.0" type="qcurve" smooth="yes"/>
      <point x="1560" y="486.0" type="line" smooth="yes"/>
      <point x="1560" y="228"/>
      <point x="1163" y="-25.0"/>
      <point x="875" y="-25.0" type="qcurve" smooth="yes"/>
      <point x="865" y="-25.0" type="line" smooth="yes"/>
      <point x="517" y="-25.0"/>
      <point x="118" y="284.0"/>
      <point x="118" y="506.0" type="qcurve" smooth="yes"/>
      <point x="118" y="541.0" type="line" smooth="yes"/>
      <point x="118" y="762.0"/>
      <point x="533" y="1083.0"/>
      <point x="880" y="1083.0" type="qcurve" smooth="yes"/>
      <point x="891" y="1083.0" type="line" smooth="yes"/>
      <point x="1174.0" y="1083.0"/>
      <point x="1560.0" y="859.0"/>
    </contour>
    <contour>
      <point x="1486.0" y="535" type="line" smooth="yes"/>
      <point x="1486" y="774"/>
      <point x="1137.0" y="952"/>
      <point x="892.0" y="952" type="qcurve" smooth="yes"/>
      <point x="879.0" y="952" type="line" smooth="yes"/>
      <point x="625.0" y="952"/>
      <point x="292.0" y="733"/>
      <point x="292.0" y="535" type="qcurve" smooth="yes"/>
      <point x="292.0" y="505" type="line" smooth="yes"/>
      <point x="292.0" y="307"/>
      <point x="640.0" y="97"/>
      <point x="876.0" y="97" type="qcurve" smooth="yes"/>
      <point x="889.0" y="97" type="line" smooth="yes"/>
      <point x="1141.0" y="97"/>
      <point x="1486" y="300"/>
      <point x="1486.0" y="505" type="qcurve" smooth="yes"/>
    </contour>
  </outline>
</glyph>
<glyph name="question" format="2">
  <advance width="1378"/>
  <outline>
    <contour>
      <point x="586.0" y="-10.0" type="line" smooth="yes"/>
      <point x="629.0" y="-10.0"/>
      <point x="694.0" y="75.0"/>
      <point x="694.0" y="146.0" type="qcurve" smooth="yes"/>
      <point x="694.0" y="176.0" type="line" smooth="yes"/>
      <point x="694.0" y="250.0"/>
      <point x="632.0" y="333.0"/>
      <point x="586.0" y="333.0" type="qcurve" smooth="yes"/>
      <point x="584.0" y="333.0" type="line" smooth="yes"/>
      <point x="542.0" y="333.0"/>
      <point x="480.0" y="250.0"/>
      <point x="480.0" y="176.0" type="qcurve" smooth="yes"/>
      <point x="480.0" y="146.0" type="line" smooth="yes"/>
      <point x="480.0" y="70.0"/>
      <point x="540.0" y="-10.0"/>
      <point x="584.0" y="-10.0" type="qcurve" smooth="yes"/>
    </contour>
    <contour>
      <point x="654.0" y="520.0" type="line"/>
      <point x="474.0" y="520.0" type="line"/>
      <point x="474.0" y="739.0" type="line"/>
      <point x="789.0" y="734.0"/>
      <point x="1089.0" y="925.0"/>
      <point x="1089.0" y="1068.0" type="qcurve" smooth="yes"/>
      <point x="1089.0" y="1076.0" type="line" smooth="yes"/>
      <point x="1089.0" y="1227.0"/>
      <point x="858.0" y="1383.0"/>
      <point x="655.0" y="1383.0" type="qcurve" smooth="yes"/>
      <point x="648.0" y="1383.0" type="line" smooth="yes"/>
      <point x="434.0" y="1383.0"/>
      <point x="191.0" y="1237.0"/>
      <point x="197.0" y="1125.0" type="qcurve" smooth="yes"/>
      <point x="198.0" y="1062.0" type="line"/>
      <point x="-3.0" y="1064.0" type="line"/>
      <point x="-3.0" y="1125.0" type="line" smooth="yes"/>
      <point x="-3.0" y="1304.0"/>
      <point x="371.0" y="1522.0"/>
      <point x="675.0" y="1522.0" type="qcurve" smooth="yes"/>
      <point x="683.0" y="1522.0" type="line" smooth="yes"/>
      <point x="972.0" y="1523.0"/>
      <point x="1324.0" y="1295.0"/>
      <point x="1324.0" y="1081.0" type="qcurve" smooth="yes"/>
      <point x="1324.0" y="1069.0" type="line" smooth="yes"/>
      <point x="1324.0" y="868.0"/>
      <point x="983.0" y="613.0"/>
      <point x="654.0" y="619.0" type="qcurve"/>
    </contour>
  </outline>
</glyph>
<glyph name="s" format="2">
  <advance width="1630"/>
  <outline>
    <contour>
      <point x="1331.0" y="342.0" type="line" smooth="yes"/>
      <point x="1331.0" y="405.0"/>
      <point x="1163.0" y="466.0"/>
      <point x="759.0" y="500.0" type="qcurve" smooth="yes"/>
      <point x="363.0" y="527.0"/>
      <point x="119.0" y="654.0"/>
      <point x="119.0" y="771.0" type="qcurve" smooth="yes"/>
      <point x="119.0" y="781.0" type="line" smooth="yes"/>
      <point x="119.0" y="916.0"/>
      <point x="480.0" y="1081.0"/>
      <point x="809.0" y="1081.0" type="qcurve" smooth="yes"/>
      <point x="823.0" y="1081.0" type="line" smooth="yes"/>
      <point x="1150.0" y="1081.0"/>
      <point x="1458.0" y="917.0"/>
      <point x="1474.0" y="757.0" type="qcurve" smooth="yes"/>
      <point x="1476.0" y="720.0" type="line"/>
      <point x="1272.0" y="720.0" type="line"/>
      <point x="1270.0" y="747.0" type="line" smooth="yes"/>
      <point x="1266.0" y="862.0"/>
      <point x="1017.0" y="978.0"/>
      <point x="817.0" y="978.0" type="qcurve" smooth="yes"/>
      <point x="807.0" y="978.0" type="line" smooth="yes"/>
      <point x="572.0" y="978.0"/>
      <point x="334.0" y="866.0"/>
      <point x="334.0" y="777.0" type="qcurve" smooth="yes"/>
      <point x="334.0" y="771.0" type="line" smooth="yes"/>
      <point x="334.0" y="703.0"/>
      <point x="530.0" y="638.0"/>
      <point x="896.0" y="618.0" type="qcurve" smooth="yes"/>
      <point x="1261.0" y="597.0"/>
      <point x="1534.0" y="473.0"/>
      <point x="1534.0" y="364.0" type="qcurve" smooth="yes"/>
      <point x="1534.0" y="363.0" type="line" smooth="yes"/>
      <point x="1534.0" y="208.0"/>
      <point x="1185.0" y="-23.0"/>
      <point x="822.0" y="-23.0" type="qcurve" smooth="yes"/>
      <point x="814.0" y="-23.0" type="line" smooth="yes"/>
      <point x="456.0" y="-23.0"/>
      <point x="144.0" y="162.0"/>
      <point x="117.0" y="319.0" type="qcurve" smooth="yes"/>
      <point x="109.0" y="364.0" type="line"/>
      <point x="354.0" y="364.0" type="line"/>
      <point x="357.0" y="371.0" type="line" smooth="yes"/>
      <point x="372.0" y="200.0"/>
      <point x="616.0" y="84.0"/>
      <point x="826.0" y="84.0" type="qcurve" smooth="yes"/>
      <point x="829.0" y="84.0" type="line" smooth="yes"/>
      <point x="1087.0" y="84.0"/>
      <point x="1331.0" y="226.0"/>
      <point x="1331.0" y="337.0" type="qcurve" smooth="yes"/>
    </contour>
  </outline>
</glyph>
<glyph name="six" format="2">
  <advance width="1526"/>
  <outline>
    <contour>
      <point x="301.0" y="652.0" type="qcurve"/>
      <point x="301.0" y="489.0" type="line" smooth="yes"/>
      <point x="301.0" y="299.0"/>
      <point x="560" y="108"/>
      <point x="819.0" y="108.0" type="qcurve" smooth="yes"/>
      <point x="828.0" y="108.0" type="line" smooth="yes"/>
      <point x="1045" y="108"/>
      <point x="1316.0" y="299.0"/>
      <point x="1316.0" y="455.0" type="qcurve" smooth="yes"/>
      <point x="1316.0" y="485.0" type="line" smooth="yes"/>
      <point x="1316.0" y="652.0"/>
      <point x="1041" y="839"/>
      <point x="812.0" y="839.0" type="qcurve" smooth="yes"/>
      <point x="802.0" y="839.0" type="line" smooth="yes"/>
      <point x="598" y="839"/>
      <point x="297" y="629"/>
      <point x="300.0" y="517.0" type="qcurve" smooth="yes"/>
      <point x="301.0" y="479.0" type="line"/>
      <point x="236.0" y="485.0" type="line"/>
      <point x="236.0" y="519.0" type="line" smooth="yes"/>
      <point x="236.0" y="727.0"/>
      <point x="605" y="978"/>
      <point x="861.0" y="978.0" type="qcurve" smooth="yes"/>
      <point x="868.0" y="978.0" type="line" smooth="yes"/>
      <point x="1153.0" y="978.0"/>
      <point x="1482" y="735"/>
      <point x="1482.0" y="509.0" type="qcurve" smooth="yes"/>
      <point x="1482.0" y="474.0" type="line" smooth="yes"/>
      <point x="1482" y="265"/>
      <point x="1126.0" y="-25.0"/>
      <point x="825.0" y="-25.0" type="qcurve" smooth="yes"/>
      <point x="816.0" y="-25.0" type="line" smooth="yes"/>
      <point x="480.0" y="-25.0"/>
      <point x="139" y="273"/>
      <point x="139.0" y="575.0" type="qcurve" smooth="yes"/>
      <point x="139.0" y="598.0" type="line" smooth="yes"/>
      <point x="139" y="1020"/>
      <point x="779.0" y="1501.0"/>
      <point x="1198.0" y="1510.0" type="qcurve" smooth="yes"/>
      <point x="1274.0" y="1510.0" type="line"/>
      <point x="1274.0" y="1348.0" type="line"/>
      <point x="1223.0" y="1348.0" type="line" smooth="yes"/>
      <point x="832" y="1348"/>
      <point x="280.0" y="966.0"/>
    </contour>
  </outline>
</glyph>
<glyph name="t" format="2">
  <advance width="1083"/>
  <outline>
    <contour>
      <point x="1046" y="892" type="line"/>
      <point x="15" y="892" type="line"/>
      <point x="15" y="1040" type="line"/>
      <point x="1046" y="1040" type="line"/>
    </contour>
    <contour>
      <point x="541" y="395" type="line" smooth="yes"/>
      <point x="541" y="260"/>
      <point x="642" y="116"/>
      <point x="728" y="116" type="qcurve" smooth="yes"/>
      <point x="805" y="116"/>
      <point x="925" y="146"/>
      <point x="960" y="169" type="qcurve"/>
      <point x="1015" y="54" type="line"/>
      <point x="969" y="23"/>
      <point x="813" y="-22"/>
      <point x="729" y="-22" type="qcurve" smooth="yes"/>
      <point x="568" y="-22"/>
      <point x="377" y="180"/>
      <point x="377" y="415" type="qcurve" smooth="yes"/>
      <point x="377" y="1329" type="line"/>
      <point x="541" y="1329" type="line"/>
    </contour>
  </outline>
</glyph>
<glyph name="two" format="2">
  <advance width="1427"/>
  <outline>
    <contour>
      <point x="1395.0" y="0.0" type="line"/>
      <point x="54.0" y="0.0" type="line"/>
      <point x="54.0" y="92.0" type="line"/>
      <point x="869.0" y="704.0" type="line" smooth="yes"/>
      <point x="971.0" y="778.0"/>
      <point x="1127.0" y="985.0"/>
      <point x="1127.0" y="1098.0" type="qcurve" smooth="yes"/>
      <point x="1127.0" y="1144.0" type="line" smooth="yes"/>
      <point x="1127.0" y="1254.0"/>
      <point x="916.0" y="1400.0"/>
      <point x="731.0" y="1400.0" type="qcurve" smooth="yes"/>
      <point x="714.0" y="1400.0" type="line" smooth="yes"/>
      <point x="519.0" y="1400.0"/>
      <point x="298.0" y="1242.0"/>
      <point x="296.0" y="1108.0" type="qcurve" smooth="yes"/>
      <point x="297.0" y="978.0" type="line"/>
      <point x="105.0" y="978.0" type="line"/>
      <point x="107.0" y="1135.0" type="line" smooth="yes"/>
      <point x="108.0" y="1301.0"/>
      <point x="415.0" y="1527.0"/>
      <point x="690.0" y="1527.0" type="qcurve" smooth="yes"/>
      <point x="743.0" y="1527.0" type="line" smooth="yes"/>
      <point x="1013.0" y="1527.0"/>
      <point x="1328.0" y="1328.0"/>
      <point x="1328.0" y="1162.0" type="qcurve" smooth="yes"/>
      <point x="1328.0" y="1132.0" type="line" smooth="yes"/>
      <point x="1328.0" y="972.0"/>
      <point x="1153.0" y="711.0"/>
      <point x="1026.0" y="609.0" type="qcurve" smooth="yes"/>
      <point x="344.0" y="138.0" type="line"/>
      <point x="1395.0" y="138.0" type="line"/>
    </contour>
  </outline>
</glyph>
<glyph name="y" format="2">
  <advance width="1415"/>
  <outline>
    <contour>
      <point x="603.0" y="-26.0" type="qcurve"/>
      <point x="-37.0" y="1040.0" type="line"/>
      <point x="165.0" y="1040.0" type="line"/>
      <point x="723.0" y="81.0" type="line"/>
      <point x="1275.0" y="1040.0" type="line"/>
      <point x="1445.0" y="1040.0" type="line"/>
      <point x="824.0" y="-1.0" type="line" smooth="yes"/>
      <point x="642.0" y="-354.0"/>
      <point x="307.0" y="-487.0"/>
      <point x="173.0" y="-487.0" type="qcurve" smooth="yes"/>
      <point x="89.0" y="-487.0"/>
      <point x="27.0" y="-487.0"/>
      <point x="-19.0" y="-472.0" type="qcurve"/>
      <point x="-3.0" y="-335.0" type="line"/>
      <point x="26.0" y="-343.0"/>
      <point x="111.0" y="-352.0"/>
      <point x="184.0" y="-352.0" type="qcurve" smooth="yes"/>
      <point x="244.0" y="-352.0"/>
      <point x="547.0" y="-177.0"/>
    </contour>
  </outline>
</glyph>
